<svg class="mt-8 mb-5" aria-label="Pyramids, Eiffel Tower and Sydney Opera House illustration" role="img" viewBox="0 0 268.5 90" 
    version="1.1" y="0" x="0"  xmlns="http://www.w3.org/2000/svg">
    <style>.svg-part{fill:#999}</style>
    <switch>
        <g>
            <path class="svg-part" 
                d="M153.3 86.4h-13.5l-9.4-16.7c.2-.1.4-.3.4-.6v-3.9c0-.4-.3-.7-.7-.7h-1.6l-3.6-12.3h.1c.4 0 
                .7-.3.7-.7v-2c0-.4-.3-.7-.7-.7h-.5l-2.6-31.2c.1-.1.1-.2.1-.3v-2.6c0-.2-.1-.4-.3-.5v-1.3c0-.4-.3-.7-.7-.7h-.7v-8c0-.4-.3-.7-.7-.7s-.7.3-.7.7v8h-.7c-.4 0-.7.3-.7.7v1.3c-.2.1-.3.3-.3.5v2.6c0 
                .2.1.3.2.4L115 48.9h-.6c-.4 0-.7.3-.7.7v2c0 .4.3.7.7.7h.1l-3.6 12.3h-1.6c-.4 0-.7.3-.7.7v3.9c0 .3.2.5.4.6l-9.4 
                16.7H44.1c-.4 0-.7.3-.7.7s.3.7.7.7h109.2c.4 0 .7-.3.7-.7 0-.5-.3-.8-.7-.8zm-47.8-7.9h4.3l-1.5 3.1h-4.6l1.8-3.1zm2.5-4.4h4l-1.5 
                3.1h-4.2l1.7-3.1zm19.4 0h4l1.7 3.1h-4.2l-1.5-3.1zm-.7-1.3l-1.4-3h3.6l1.7 
                3h-3.9zm2.7-4.3h-19.6v-.7h19.5v.7zM114 69.8l-1.4 3h-3.8l1.7-3h3.5zm-.6 4.3h1.1c-.6.3-1.2.7-1.7 1.1l.6-1.1zm.6-1.3l1.4-3h8.4l1.4 
                3H114zm11.9 1.3l.5 1c-.4-.3-.9-.7-1.5-1h1zm3.6 4.4h4.3l1.7 3.1h-4.6l-1.4-3.1zm-16.6-16.1h2.9l-.3 2h-3.2l.6-2zm.9-3.2h2.4l-.3 
                1.9h-2.7l.6-1.9zm1-3.3h2l-.3 1.9h-2.2l.5-1.9zm3.3 0h3.2l1.3 8.6h-5.7l1.2-8.6zm5.4 6.5h2.9l.6 2h-3.2l-.3-2zm-.2-1.3l-.3-1.9h2.4l.6 
                1.9h-2.7zm1.8-3.2h-2.2l-.3-1.9h2l.5 1.9zm-1.1-7h-9v-.7h9.2v.7h-.2zm-.9-2h-1.3l-.1-1.5h1.2l.2 1.5zm-5.1-11h-.8l.1-1.4h.7v1.4zm-.9 
                1.3h.9v1.4h-1l.1-1.4zm.8 2.7v1.4h-1.1l.1-1.4h1zm-.1 2.8v1.4h-1.2l.1-1.4h1.1zm3.5-8.3h.7l.1 1.4h-.8v-1.4zm.3 
                8.3h1.1l.1 1.4h-1.2v-1.4zm0-1.4l-.1-1.4h1l.1 1.4h-1zm-.1-2.7l-.1-1.4h.9l.1 1.4h-.9zm-.2-5.5l-.1-1.4h.6l.1 1.4h-.6zm-.1-2.7l-.5-12.5 
                1 12.5h-.5zm-.6-15.7h-2v-1.3h2v1.3zm-2 3.2l-.4 12.5h-.6l1-12.5zm-.4 13.8v1.4h-.7l.1-1.4h.6zm-1.7 13.7h1.2l-.1 1.5h-1.3l.2-1.5zm3.2-19.6l.3 
                7.9v.2l.1 2.6.1 2.6v.2l.3 7.5H119l.7-21zm-.8-14.2h1.4v.6h-1.4v-.6zm4.6 38.6l.7 2.4h-9l.7-2.4h7.6zm5.9 13.7v.7h-19.5v-.7h19.5zm-26.4 
                17h4.7l-1.7 3.5h-5l2-3.5zm4.5 3.5l3.1-6.5c0-.1 2.9-5.8 9-5.8 6.3 0 8.9 5.5 9 5.8l3.1 6.5h-24.2zm25.7 0l-1.7-3.5h4.7l2 3.5h-5z">
            </path>
            <path class="svg-part" d="M145.4 87.5h116.1c.3 0 
                .6-.3.6-.6s-.3-.6-.6-.6h-.7l-2-2.5-.2-.2-5.8-2.2v-2.6l6.6-5.7c.2-.1.2-.4.2-.6-.1-.2-.2-.4-.4-.4-11-2.7-19.6 2.5-21.2 
                3.5-3.1-1.1-5.5-1.8-7.4-2.3l4.3-7.7c.1-.2.1-.3 0-.5s-.2-.3-.4-.3c-13.3-3.4-23 
                2.8-25.4 4.5-10.5-20.1-28.5-20.6-28.7-20.6s-.4.1-.5.2-.1.3-.1.5c1.4 4.2 2.6 8.3 3.6 12.2-2.3-1.2-7.7-3.5-14.4-3.6-.2 
                0-.4.1-.5.2s-.1.3-.1.5c0 .1.8 2.7 1.6 6.9-2.4-.7-8.9-2.2-15.2-.6-.2 0-.3.1-.4.3-.1.1-.1.3 0 .5l3.8 11c-4.3.2-7.4 
                2.2-7.6 2.3-.1.1-.2.2-.3.4 0 .2 0 .3.1.5l.7.8c0 .1-.1.2-.1.2v2l-.9-.4c-.2-.1-.4-.1-.6 0s-.3.3-.3.5v3.1h-4c-.3 
                0-.6.3-.6.6.3.4.5.7.8.7zm85.3-3.4h-6l3.1-5.6 2.9 5.6zm1.3 0l-5.3-10.3c1.6.2 5.3.9 11.1 3 .3.6 1.3 2.7 1.1 
                5.6l-4.4-.5c-.3 0-.5.1-.6.4l-.5 1.9H232zm2.8-1.1l4.2.5 1 2.1-5.6-1.4.4-1.2zm17.3-.6l6 2.3 1.3 1.7h-15.2l7.5-6.5v2c0 
                .2.2.4.4.5zm5.8-9.4l-15.3 13.3-1.1-.3-1.5-3.1c.3-3.1-.6-5.4-1.1-6.4 1.8-1.2 9.4-5.4 19-3.5zm-24.4-7.3l-4.1 
                7.4c-2.4-.5-3.7-.6-3.8-.6-.2 0-.4.1-.5.3s-.1.4 0 .6l2 3.9-3.8 6.9h-2.2l-11.4-13.8c2.1-1.7 11.2-7.6 23.8-4.7zm-17.1 
                14.5l-9.2 1.5c.2-4.6 1.4-8.6 1.9-10.4l7.3 8.9zm-10.3 1.4l-7.6-2.2 9.3-7.6c-.6 2.1-1.5 5.7-1.7 9.8zm-8.8-1.3l9.1 2.6h.2l10.5-1.7 
                2.4 2.9h-27l4.8-3.8zM208.2 70l-17.4 14.1h-2.2c-.2-2.1-1.2-10.7-3.8-21.5v-.1c-1-4-2.2-8.3-3.6-12.7 3.6.5 18.1 3 27 
                20.2zm-24.4-6.9c2.5 10.4 3.5 18.7 3.7 21h-2l-1.6-3.3c-.1-.2-.2-.3-.4-.3l-7.5-1.3c-.2 0-.5.1-.6.3l-1.6 
                3.3h-.9c0-6.1-.8-11.8-1.6-16.2-.6-3.4-1.3-6-1.6-7.2 7.3.1 13 3.1 14.1 3.7zm.5 21h-1.1l-4.5-1.4h-3.6l1.2-2.4 6.8 1.2 
                1.2 2.6zm-14-17.2c.8 4.2 1.5 9.7 1.5 15.4l-8.1-3.8c-.1 0-.2-.1-.2-.1h-3.6L155.7 66c6.4-1.4 13.1.5 14.6.9zM158.6 78l.3.9-1.7 
                1.7h-4.8l-.6-.7c1.1-.7 3.6-1.8 6.8-1.9zm-6.3 3.7h5.1c.2 0 .3-.1.4-.2l1.9-1.9h3.6l8.8 4.2c.1 0 .2.1.2.1h6.1l4.5 1.4H233.7l4.4 
                1.1h-80.5l-5.3-2.6v-2.1zm-1.7 2.5l4.4 2.2h-4.4v-2.2zM125.4 86.3H90.6L72.4 63.6s-.1-.1-.2-.1h-.4c-.2 0-.3.1-.4.2l-5.5 
                6.5-22.1-29.8c-.2-.2-.5-.3-.7-.2H43c-.1 0-.1.1-.2.1l-34.2 46h-3c-.4 0-.6.3-.6.7s.3.7.7.7h119.7c.4 0 
                .7-.3.7-.7-.1-.4-.4-.7-.7-.7zm-47.4 0l-7.4-9.9 1.7-10.8 16.6 20.7H78zm-17.6 0l-15-41.6 24 32.2 7 9.4h-16zm10.5-20L69.5 
                75l-2.8-3.7 4.2-5zM43.1 42.2L59 86.3H10.3l32.8-44.1z"></path><path class="svg-part" d="M265.5 87.8H2.8c-.4 
                0-.7-.3-.7-.7s.3-.7.7-.7h262.7c.4 0 .7.3.7.7 0 .3-.3.7-.7.7z"></path><path class="svg-part" d="M246.3 
                49.7h-.2c-.3-1.7-1.7-3-3.5-3-1.4 0-2.7.9-3.2 2.2-1.3.3-2.3 1.4-2.3 2.8 0 1.6 1.3 2.9 2.9 2.9h6.3c1.3 0 
                2.4-1.1 2.4-2.4.1-1.4-1-2.5-2.4-2.5zm0 4.2H240c-1.2 0-2.1-1-2.1-2.1 0-1.2 1-2.1 2.1-2.1.6 0 1.2.3 1.6.8.1.2.4.2.5 0 
                .2-.1.2-.4 0-.5-.5-.6-1.2-.9-2-1 .5-.9 1.4-1.4 2.4-1.4 1.4 0 2.6 1 2.8 2.4-.3.1-.5.3-.7.5-.1.1-.2.4 0 .5.1.1.4.2.5 0 
                .3-.3.7-.5 1.2-.5.9 0 1.7.8 1.7 1.7.1.9-.7 1.7-1.7 1.7z" fill="#999" stroke="#999" stroke-width=".1" stroke-miterlimit="10">
            </path>
            <path class="svg-part" 
                d="M185 21.6c-.1-1.6-1.5-2.8-3.1-2.8-.9 0-1.8.4-2.4 1.1-.4-.2-.8-.4-1.2-.4-1.3 0-2.3 1-2.3 2.3v.3c-1.3 
                0-2.3 1.1-2.3 2.3 0 1.3 1 2.3 2.3 2.3h8.8c1.4 0 2.6-1.2 2.6-2.6.2-1.3-.9-2.5-2.4-2.5zm0 4.5h-8.8c-.9 0-1.6-.7-1.6-1.6s.7-1.6 
                1.6-1.6c.4 0 .8.2 1.1.4.1.1.4.1.5 0s.1-.4 0-.5c-.3-.2-.6-.4-.9-.5 0-.1-.1-.3-.1-.4 0-.9.7-1.6 1.6-1.6.3 0 .6.1.8.2-.1.2-.2.5-.3.8 
                0 .2.1.4.3.4s.4-.1.4-.3c.2-1.1 1.2-1.9 2.3-1.9 1.2 0 2.2 1 2.3 2.2-.5.1-.9.4-1.3.8-.1.2-.1.4 0 .5.2.1.4.1.5 0 .4-.4.9-.6 1.4-.6 1 
                0 1.9.8 1.9 1.9.2.9-.7 1.8-1.7 1.8zM148.6 47.6h-.2c-.3-1.8-1.9-3.1-3.7-3.1-1.6 0-3 1-3.6 2.6-1.3.3-2.3 1.5-2.3 2.9 0 1.7 1.4 3 3 
                3h6.7c1.5 0 2.7-1.2 2.7-2.7s-1.2-2.7-2.6-2.7zm0 4.3h-6.7c-1.1 0-2-.9-2-2s.9-2 2-2c.5 0 .9.2 
                1.3.4.2.2.5.1.7-.1s.1-.5-.1-.7c-.5-.4-1-.6-1.5-.6.5-.9 1.4-1.5 2.5-1.5 1.4 0 2.5 1 2.7
                2.4-.2.1-.3.2-.5.3-.2.2-.3.5-.1.7s.5.3.7.1c.3-.2.7-.3 1-.3.9 0 1.7.8 1.7 1.7s-.8 1.6-1.7 
                1.6zM20.6 47.3h-.1c-.3-1.7-1.7-2.9-3.5-2.9-1.5 0-2.8 1-3.3 2.4a2.795 2.795 0 0 0 .7 5.5h6.2c1.4 0 2.5-1.1 2.5-2.5 
                0-1.3-1.1-2.5-2.5-2.5zm0 4.1h-6.2c-1 0-1.9-.9-1.9-1.9s.9-1.9 1.9-1.9c.4 0 .8.1 
                1.2.4.2.2.5.1.6-.1.2-.2.1-.5-.1-.6-.4-.3-.9-.5-1.4-.6.4-.8 1.3-1.4 2.3-1.4 1.3 0 2.4 1 
                2.6 2.2-.2.1-.3.2-.5.3-.2.2-.2.4-.1.6.2.2.4.2.6.1.3-.2.6-.3 1-.3.9 0 1.6.7 1.6 1.6s-.7 1.6-1.6 
                1.6zM82.6 36.2c-.2-2.2-2.1-3.9-4.3-3.9-1.3 0-2.5.6-3.3 1.5-.5-.3-1.1-.5-1.7-.5-1.8 0-3.3 1.5-3.3 3.3v.4c-1.7.1-3.1 1.5-3.1 3.3s1.5 
                3.3 3.3 3.3h12.3c2.1 0 3.7-1.7 3.7-3.7s-1.6-3.6-3.6-3.7zm-.2 6.3H70.1c-1.2 0-2.1-1-2.1-2.1 0-1.2 1-2.2 2.1-2.2h.4c.4.1.8.3 
                1.1.5.2.2.6.2.8 0s.2-.6 0-.8c-.4-.3-.8-.6-1.2-.7-.1-.2-.1-.4-.1-.6 0-1.2 1-2.2 2.2-2.2.4 0 .8.1 1 .3-.2.3-.3.7-.3 
                1-.1.3.1.6.5.7.3.1.6-.1.7-.5.3-1.5 1.6-2.6 3.1-2.6 1.7 0 3 1.3 3.2 2.9-.7.2-1.3.6-1.8 1.1-.2.2-.2.6 0 .8s.6.2.8 0c.5-.5 
                1.2-.9 1.9-.9 1.4 0 2.6 1.1 2.6 2.6 0 1.6-1.2 2.7-2.6 2.7z">
            </path>
        </g>
    </switch>
</svg>