<svg id="Layer_1" data-name="Layer 1" xmlns="http://www.w3.org/2000/svg" width="45.38" height="45.32" viewBox="0 0 45.38 45.32">
  <defs>
    <style>
      .cls-1 {
        fill: #eaffed;
      }

      .cls-2 {
        fill: #a2f0ff;
      }

      .cls-2, .cls-3 {
        fill-rule: evenodd;
      }

      .cls-3 {
        fill: #404040;
      }
    </style>
  </defs>
  <g>
    <path class="cls-1" d="M18.36,23.45s8.39-6.36,20.84,0,3.77,15.21,13.32,18,4.34,14.82-9.84,14.17S18.36,51.4,13.73,41.48,14.81,25.22,18.36,23.45Z" transform="translate(-11.99 -12.92)"/>
    <polygon class="cls-2" points="1.05 16.33 1.81 14.88 3.01 14.88 3.81 13.73 3.81 12.38 5.24 10.7 6.39 9.75 9.33 9.36 10.58 9.36 12.81 9.36 14.5 11.06 17.11 12.85 18.31 14.26 20.47 14.88 21.25 16.33 21.81 18.63 19.85 20.59 2.92 20.59 1.43 19.61 0.42 17.65 1.05 16.33"/>
    <polygon class="cls-2" points="37.04 17.47 31.43 28.25 42.74 28.25 43.63 26.82 44.34 25.23 44.34 23.98 43.19 22.93 42.38 22.66 41.32 22.66 41.05 20.01 39.71 18.16 37.04 17.47"/>
    <g id="svgg">
      <path id="path0" class="cls-3" d="M31.93,13.06a16.28,16.28,0,0,0-8.84,4.29c-1.34,1.29-1.64,1.86-1.18,2.29s.74.29,1.6-.64a14.39,14.39,0,0,1,4.21-3.15A20.57,20.57,0,0,1,29.89,15a2.82,2.82,0,0,1-.43.6,16.15,16.15,0,0,0-3,6.63l-.2.9-.62-.48a6.59,6.59,0,0,0-10.44,3.62,4.42,4.42,0,0,1-.17.62l-.53.17a3.75,3.75,0,0,0-1.35,6.25c1.11,1.06,1.21,1.07,8.23,1.07h5.76l.3.86c.42,1.26,1.13,3,2.27,5.7l1.18,2.81.17.45h-.46c-1.82,0-2.73-.91-6.23-6.24-1.59-2.42-1.72-2.54-2.3-2s-.34.75,1.24,3.11c.58.85,2.34,3.32,2.93,4.1A33.86,33.86,0,0,1,28,46.6l1.39,3-.49.07c-1.71.23-2,3.09-.41,3.65l.33.11.45,1.72c.85,3.16.72,3.08,5.14,3.08s4.26.1,5.14-3.24c.42-1.61.42-1.61.69-1.66.67-.13,1-.77,1-1.84s-.56-1.84-1.52-1.84a.68.68,0,0,1-.33,0,63,63,0,0,1,3.31-6.78l.62-.86,5.58,0,5.57,0,.54-.26a3.64,3.64,0,0,0,1-5.8,4,4,0,0,0-1.71-1c-.16,0-.21-.1-.34-.68a6.31,6.31,0,0,0-2.23-3.46,7.65,7.65,0,0,0-1.87-1c-.07,0-.06-.24,0-.78,1-6.39-3.56-13.08-10.38-15.27a19.12,19.12,0,0,0-7.61-.64M36,14.71a8.62,8.62,0,0,1,3.85,4.61c.53,1.23.87,1.49,1.44,1.09s-.29-2.6-1.88-4.69L38.88,15l.64.23c6.66,2.35,10.35,8.89,8.61,15.27-.81,3-4,8.36-7.28,12.45a3.62,3.62,0,0,1-2.71,1.25c-.52,0-.62.36.84-3.09,3.38-8,4.17-11.22,3.78-15.71-.21-2.54-.41-3.14-1-3.14s-.78.31-.55,1.83c.74,4.81,0,8.11-3.68,16.82-.65,1.54-1.23,2.92-1.28,3l-.09.24H34.36a8.43,8.43,0,0,1-1.77-.08c0-.05-.56-1.41-1.24-3-1.57-3.68-2.65-6.42-2.65-6.67a9.85,9.85,0,0,1,1.22,0c1.94,0,2.71-.23,3.6-1.07a3.73,3.73,0,0,0-2-6.39c-.59-.09-.61-.1-.94-.57A5,5,0,0,0,28,24.57l-.4-.1,0-.39a17.27,17.27,0,0,1,.74-3.31c1.63-5,4.78-7.44,7.69-6.06M22.75,22.77A5.41,5.41,0,0,1,26,25.13c.39.6.41.62.82.68a3.74,3.74,0,0,1,2.92,1.76c.29.58.45.67,1.09.67a2.34,2.34,0,0,1,1,4.5c-.4.18-15.69.28-16.53.1a2.34,2.34,0,0,1-1.8-2.73,2.53,2.53,0,0,1,2.08-1.87.82.82,0,0,0,.93-.91c0-2.87,3.14-5.15,6.26-4.56m27.7,8.81a5.06,5.06,0,0,1,2.26,3.52c.14.89.3,1.11.81,1.11a2.19,2.19,0,0,1,.9,4.14l-.46.24-4.81,0c-3.93,0-4.79,0-4.74-.09s.4-.6.8-1.18c1.92-2.82,3.88-6.58,4.17-8l0-.26.32.14a5.88,5.88,0,0,1,.7.36M39.74,45.39l-1,2.17-1,2.1-3.4,0-3.4,0L30,47.54c-.53-1.15-.94-2.1-.93-2.11a2.09,2.09,0,0,1,.54.06,70.92,70.92,0,0,0,10.11-.16s0,0,0,.06m.09,6.15,0,.46H28.92l0-.34c-.05-.63-.5-.59,5.52-.59h5.45l0,.47m-1.4,2a28.27,28.27,0,0,1-.85,3c-.21.34-.67.39-3.44.36-3.07,0-2.91,0-3.22-1.12l-.4-1.5-.22-.82h4.07c2.46,0,4.06,0,4.06.09" transform="translate(-11.99 -12.92)"/>
    </g>
  </g>
</svg>
