<svg id="Layer_1" data-name="Layer 1" xmlns="http://www.w3.org/2000/svg" width="45.38" height="38.12" viewBox="0 0 45.38 38.12">
  <defs>
    <style>
      .cls-1 {
        fill: #ecffb9;
      }

      .cls-2 {
        fill: #404040;
      }

      .cls-2, .cls-4 {
        fill-rule: evenodd;
      }

      .cls-3 {
        fill: #83d172;
      }

      .cls-4 {
        fill: #fff;
      }
    </style>
  </defs>
  <g>
    <path class="cls-1" d="M19.23,23.26s8.4-6.36,20.85,0,3.76,15.21,13.31,18,4.35,14.82-9.84,14.17S19.23,51.21,14.6,41.29,15.68,25,19.23,23.26Z" transform="translate(-12.86 -18.11)"/>
    <path class="cls-2" d="M31.76,18.2c-2.34.23-5,1-5.22,1.48-.54,1.05.32,1.74,1.61,1.29,12.52-4.3,25.06,7.17,22,20.13-.52,2.19-2.43,6.17-3.18,6.64a11.83,11.83,0,0,1-.08-2.21c0-2.11,0-2.28-.15-2.52a1,1,0,0,0-1.67,0,58.73,58.73,0,0,0,0,7.85c.27.53.17.52,4.13.54A35.73,35.73,0,0,0,53,51.31a1,1,0,0,0,.42-1.62l-.26-.26H50.72c-1.37,0-2.48,0-2.48,0s.27-.39.61-.84A19.11,19.11,0,0,0,45.07,22a19.36,19.36,0,0,0-13.31-3.8" transform="translate(-12.86 -18.11)"/>
    <path class="cls-2" d="M17.48,23.29c-3.9.45-3.93.46-3.93,1.38s.32,1,3.28.67l1.9-.19s-.21.3-.47.64A19.08,19.08,0,0,0,38.74,55.52c1.69-.47,1.93-.64,1.93-1.35,0-.93-.58-1.14-1.93-.71C24.53,58,11.7,43.24,18.15,29.81c.72-1.5,2.4-4,2.45-3.64,0,.08.14,1.21.28,2.52.29,2.59.32,2.69.81,2.89a1,1,0,0,0,1.36-.86c0-.33-.66-6.46-.75-7-.16-.9-.31-.91-4.82-.4" transform="translate(-12.86 -18.11)"/>
    <circle class="cls-3" cx="20.78" cy="19.12" r="11.86"/>
    <path class="cls-4" d="M33.21,27.25c-.3.19-.34.31-.34,1.11v.74l-.4.08a4.53,4.53,0,0,0-3.37,5.47A4.45,4.45,0,0,0,33.28,38c2.37,0,3.86,1.41,3.53,3.31-.6,3.53-6.38,3.19-6.38-.37a.76.76,0,0,0-.81-.82c-.59,0-.84.38-.77,1.18a4.46,4.46,0,0,0,3.57,4l.42.08,0,.77c0,.94.2,1.18.77,1.18s.74-.24.77-1.18l0-.77.42-.08a4.46,4.46,0,0,0-.74-8.84c-2.36,0-3.82-1.39-3.51-3.32.55-3.42,5.55-3.26,6.07.2.12.8.29,1,.86,1,.73,0,.93-.69.59-2a4.54,4.54,0,0,0-3.32-3.16l-.41-.08v-.75c0-.82,0-1-.38-1.13a.85.85,0,0,0-.82,0" transform="translate(-12.86 -18.11)"/>
  </g>
</svg>
