<svg id="Layer_1" data-name="Layer 1" xmlns="http://www.w3.org/2000/svg" width="45.38" height="39.62" viewBox="0 0 45.38 39.62">
  <defs>
    <style>
      .cls-1 {
        fill: #e5ffb9;
      }

      .cls-2 {
        fill: #83e573;
      }

      .cls-3 {
        fill: #404040;
        fill-rule: evenodd;
      }
    </style>
  </defs>
  <g>
    <path class="cls-1" d="M18.44,23.26s8.4-6.36,20.84,0,3.77,15.21,13.32,18,4.34,14.82-9.84,14.17S18.44,51.21,13.81,41.29,14.89,25,18.44,23.26Z" transform="translate(-12.07 -18.29)"/>
    <polygon class="cls-2" points="13.85 14.69 19.19 13.62 22.69 7.57 25.25 12.55 27.57 13.8 32.38 14.69 28.28 18.79 28.64 26.39 22.69 22.89 16.88 25.56 17.77 19.81 13.85 14.69"/>
    <g id="svgg">
      <path id="path0" class="cls-3" d="M18.27,18.42a4.34,4.34,0,0,0-2.92,2.81l-.18.51V35.55c0,15,0,14.14.43,15.06a4.41,4.41,0,0,0,2.34,2.11l.52.2,5.49,0,5.49,0,2.36,2.35c2.7,2.68,2.6,2.6,3.17,2.6s.48.08,3.18-2.6L40.51,53l5.49,0,5.49,0,.54-.21a4.38,4.38,0,0,0,2.64-2.93c.17-.65.17-27.68,0-28.35a4.37,4.37,0,0,0-3-3c-.66-.17-32.72-.17-33.37,0m33.05,2.46a1.91,1.91,0,0,1,1,1.12c.08.23.1,2.87.1,13.63,0,15.13.06,13.75-.65,14.41s-.38.52-6.49.52c-4.8,0-5.55,0-5.8.12a21.4,21.4,0,0,0-2.4,2.22L35,55l-2.1-2.09c-1.16-1.16-2.2-2.15-2.31-2.21a51.11,51.11,0,0,0-5.95-.14c-5.19,0-5.79-.05-6-.17a2.44,2.44,0,0,1-.92-1l-.16-.35,0-13.15c0-15.24-.08-14.3.91-14.91.58-.36.42-.36,16.75-.35l15.7,0,.45.22M34.39,24.63c-.34.21-.31.16-1.84,3.23l-1.42,2.86L28,31.17c-3.78.54-3.91.59-4,1.5-.05.51.11.82.7,1.38C25,34.3,26,35.29,27,36.26L28.78,38l-.54,3.16c-.59,3.41-.6,3.5-.22,3.93.6.69.78.64,4.14-1.12L35,42.5,37.8,44c3.35,1.76,3.53,1.81,4.13,1.12.38-.43.37-.52-.22-3.93L41.17,38,43,36.25c1-1,2-2,2.27-2.2.59-.56.75-.87.7-1.38-.09-.91-.21-1-4-1.51l-3.12-.45-1.41-2.84c-.78-1.57-1.48-2.92-1.56-3a1.22,1.22,0,0,0-1.46-.23m1.67,5.95c1.29,2.57.94,2.3,3.59,2.68,1.14.17,2.17.32,2.3.35s.18.09-1.4,1.62c-2.18,2.1-2,1.61-1.45,5l.34,1.91-.78-.41-2-1.06c-1.65-.89-1.75-.89-3.33,0l-2,1-.86.46.34-1.91c.59-3.37.73-2.88-1.44-5-.89-.86-1.62-1.58-1.61-1.59l2.3-.35c2.88-.42,2.49-.14,3.79-2.71.58-1.14,1.06-2.07,1.08-2.07s.51.93,1.09,2.07" transform="translate(-12.07 -18.29)"/>
    </g>
  </g>
</svg>
