<svg id="Layer_1" data-name="Layer 1" xmlns="http://www.w3.org/2000/svg" width="45.38" height="45.55" viewBox="0 0 45.38 45.55">
  <defs>
    <style>
      .cls-1 {
        fill: #d8ffed;
      }

      .cls-2 {
        fill: #2ed8ff;
      }

      .cls-3 {
        fill: #404040;
      }
    </style>
  </defs>
  <g>
    <path class="cls-1" d="M18.86,23.26s8.4-6.36,20.85,0,3.76,15.21,13.31,18,4.34,14.82-9.84,14.17S18.86,51.21,14.23,41.29,15.31,25,18.86,23.26Z" transform="translate(-12.49 -12.12)"/>
    <polygon class="cls-2" points="16.09 17.2 18.89 14.76 21.37 17.2 25.57 12.76 28.11 14.98 21.37 21.98 16.09 17.2"/>
    <g>
      <path class="cls-3" d="M29.82,12.35A5.11,5.11,0,0,0,27.47,14a3.83,3.83,0,0,1-2.19,1.34,5.21,5.21,0,0,0-4.49,4.29,4,4,0,0,1-1.47,2.52,5.27,5.27,0,0,0-1.7,2.8,5.49,5.49,0,0,0,.18,2.94,3.43,3.43,0,0,1,0,2.72,4.88,4.88,0,0,0-.3,2,4.67,4.67,0,0,0,.2,1.62,6.15,6.15,0,0,0,1.73,2.53A3.59,3.59,0,0,1,20.78,39a5.64,5.64,0,0,0,1.29,2.65l.48.51L19.79,46.9c-1.51,2.62-2.84,4.94-2.94,5.15a.81.81,0,0,0-.08.73.79.79,0,0,0,.86.62,28.26,28.26,0,0,0,2.78-.66,10.55,10.55,0,0,1,2.47-.55c0,.05.33,1.21.7,2.59.57,2.12.7,2.51.9,2.69a1.08,1.08,0,0,0,1.19,0c.1-.08,1.58-2.57,3.29-5.54,2.42-4.2,3.15-5.4,3.31-5.44,2.22-.67,2.47-.71,3.29-.47l1.19.33.7.2L40.55,52c1.71,3,3.19,5.46,3.29,5.54a1.06,1.06,0,0,0,1.19,0c.2-.17.33-.56.9-2.68.37-1.38.69-2.54.71-2.59a10.65,10.65,0,0,1,2.46.55c2.5.67,3,.75,3.34.52a1,1,0,0,0,.31-1c0-.15-1.37-2.49-3-5.21l-2.86-5,.33-.33a5.63,5.63,0,0,0,1.46-3,3.76,3.76,0,0,1,1.34-2.18,5.45,5.45,0,0,0,1.66-2.48,3.84,3.84,0,0,0,.17-1.78,4.76,4.76,0,0,0-.28-1.7,3.57,3.57,0,0,1,0-2.63,5.24,5.24,0,0,0,.28-1.64,4.66,4.66,0,0,0-.49-2.59,5,5,0,0,0-1.23-1.57,4.24,4.24,0,0,1-1.54-2.68,5.2,5.2,0,0,0-4.12-4.12,4.34,4.34,0,0,1-2.68-1.54,4.9,4.9,0,0,0-4.17-1.73,5.52,5.52,0,0,0-1.63.29,3.57,3.57,0,0,1-2.63,0,4.68,4.68,0,0,0-1.78-.29A3.79,3.79,0,0,0,29.82,12.35Zm3.11,1.89a5.59,5.59,0,0,0,3.59,0,3.41,3.41,0,0,1,4.1,1,6,6,0,0,0,3.68,2,3.4,3.4,0,0,1,2.47,2.46,5.75,5.75,0,0,0,1.92,3.63A3.25,3.25,0,0,1,50,25.9a3.34,3.34,0,0,1-.19,1.47,5.54,5.54,0,0,0,0,3.87,3.05,3.05,0,0,1,.2,1.42c0,1.12-.27,1.57-1.43,2.7a5.17,5.17,0,0,0-1.74,3.06,3.52,3.52,0,0,1-1.06,2.09,3.24,3.24,0,0,1-1.84.92,5.23,5.23,0,0,0-3.25,1.82,3.48,3.48,0,0,1-2.58,1.41,3.2,3.2,0,0,1-1.52-.26,4.31,4.31,0,0,0-1.82-.29,4.7,4.7,0,0,0-1.95.29c-1.8.56-2.67.3-4.23-1.26a5,5,0,0,0-2.95-1.67,3.45,3.45,0,0,1-2.08-1,3.56,3.56,0,0,1-1-2.07,4.91,4.91,0,0,0-1.68-3c-1.56-1.57-1.81-2.43-1.25-4.23a4.9,4.9,0,0,0,.29-2,4.52,4.52,0,0,0-.29-1.83,3,3,0,0,1-.26-1.51,3.48,3.48,0,0,1,1.41-2.58,5.32,5.32,0,0,0,1.83-3.27,3.17,3.17,0,0,1,.91-1.82,3.52,3.52,0,0,1,2.09-1.06,5.28,5.28,0,0,0,3.07-1.74,5.18,5.18,0,0,1,1.41-1.16A3.55,3.55,0,0,1,32.93,14.24Zm-7.87,29a3.59,3.59,0,0,1,2.3,1.31,6.66,6.66,0,0,0,2.24,1.64c.26.07.35.14.32.24-.07.26-4.49,7.84-4.53,7.77s-.25-.89-.52-1.89c-.53-2-.68-2.32-1.26-2.32a21.66,21.66,0,0,0-2.12.49c-1,.27-1.82.48-1.83.47s4.52-7.9,4.54-7.9ZM47.61,47C48.85,49.19,49.86,51,49.85,51S49,50.77,48,50.5,46.08,50,45.92,50c-.59,0-.71.22-1.25,2.23-.27,1-.51,1.88-.54,1.95s-4.46-7.43-4.53-7.73c0-.09.19-.25.7-.49a4.69,4.69,0,0,0,1.62-1.25,6.14,6.14,0,0,1,1.3-1.09,7.43,7.43,0,0,1,2-.52C45.3,43.11,46.37,44.88,47.61,47Z" transform="translate(-12.49 -12.12)"/>
      <path class="cls-3" d="M34.29,18.12c-.32.17-.42.39-.42.84a.74.74,0,0,0,.25.63A.89.89,0,0,0,35.65,19a.8.8,0,0,0-.45-.85A.85.85,0,0,0,34.29,18.12Z" transform="translate(-12.49 -12.12)"/>
      <path class="cls-3" d="M29.58,19.21a11.32,11.32,0,0,0-5.14,5.07,10.73,10.73,0,0,0-1.26,5.31,11.07,11.07,0,0,0,1.94,6.49A11.5,11.5,0,0,0,29.51,40a10.65,10.65,0,0,0,4.77,1.22,10.85,10.85,0,0,0,5.44-1.09,10.43,10.43,0,0,0,3.22-2.27,11.41,11.41,0,0,0,3.25-6.21,14.7,14.7,0,0,0,0-4,11.69,11.69,0,0,0-3.87-6.79,8.46,8.46,0,0,0-3.65-2,.86.86,0,0,0-.89.87c0,.5.23.74,1.11,1.16a9.76,9.76,0,0,1,5.43,7,11.57,11.57,0,0,1,0,3.76A9.85,9.85,0,0,1,37,39.08a7.2,7.2,0,0,1-2.26.21,7.24,7.24,0,0,1-2.27-.21,9.9,9.9,0,0,1-6.93-6.3,10.13,10.13,0,0,1,0-6.37,9.75,9.75,0,0,1,5.06-5.6c.88-.42,1.11-.66,1.11-1.16a.74.74,0,0,0-.26-.61C31.07,18.64,30.63,18.67,29.58,19.21Z" transform="translate(-12.49 -12.12)"/>
      <path class="cls-3" d="M35.78,25.72l-2.05,2-1-1c-1.11-1.11-1.29-1.2-1.84-.9a20.36,20.36,0,0,0-1.73,1.62L27.64,29v.88l2.83,2.82,2.82,2.83h.89L38,31.66l3.85-3.85v-.88l-1.48-1.5a20.5,20.5,0,0,0-1.74-1.63,1.33,1.33,0,0,0-.53-.12C37.86,23.68,37.61,23.89,35.78,25.72Zm3.18,1,.69.69-3,3-3,3-1.94-1.94-1.93-1.94.71-.71.72-.71.91.91a11.68,11.68,0,0,0,1.11,1,1,1,0,0,0,.89,0c.14-.07,1.08-1,2.11-2S38.2,26,38.23,26A9.88,9.88,0,0,1,39,26.68Z" transform="translate(-12.49 -12.12)"/>
    </g>
  </g>
</svg>
