<svg id="Layer_1" data-name="Layer 1" xmlns="http://www.w3.org/2000/svg" width="47.7" height="45.78" viewBox="0 0 47.7 45.78">
  <defs>
    <style>
      .cls-1 {
        fill: #ffe5db;
      }

      .cls-2 {
        fill: #ff9970;
      }

      .cls-2, .cls-3 {
        fill-rule: evenodd;
      }

      .cls-3 {
        fill: #404040;
      }
    </style>
  </defs>
  <path class="cls-1" d="M19,23.26s8.4-6.36,20.85,0,3.76,15.21,13.32,18,4.34,14.82-9.85,14.17S19,51.21,14.4,41.29,15.48,25,19,23.26Z" transform="translate(-10.35 -12.14)"/>
  <path class="cls-2" d="M18.85,35.65l1.34-2,1.51-.89-1.42-3.13,1.87-1.27.62-.32V26.47L24,25.41s1-.87,1.16-1-.54-.19,0-.91.35-.41.53-1a3.49,3.49,0,0,1,1-1.18h2a3.37,3.37,0,0,0,1-.53,2.58,2.58,0,0,1,1-.43h2.24l2.42,1h2.2l-3.42,3.05s-1.15-.43-.91,0a6.66,6.66,0,0,1,.32,1.33,7.22,7.22,0,0,1,.18,1.6l-.79,1.29a3.48,3.48,0,0,1-.7.49,8.73,8.73,0,0,1-1.36.52l-.69,1.87h-.53l-1.45.63h-.72v1.7c0,.53-.63.43-.58.79s-.93,1.17-1.29,1l-.35-.18-1.08.62s.08-.22,0,.38.27,1-.17,1.29.18.12-.45.3-1.56-.18-1.8,0a5.1,5.1,0,0,1-1.58,0l-.45-.35Z" transform="translate(-10.35 -12.14)"/>
  <polygon class="cls-2" points="27.21 33.37 34.88 26.58 37.06 27.43 39.42 29.97 41.02 29.67 41.96 29.67 44.9 33.37 33.19 44.53 29.69 43.11 29.69 39.39 27.79 37.08 26.19 35.55 26.19 34.91 27.21 33.37"/>
  <g id="svgg">
    <path id="path0" class="cls-3" d="M32.48,12.4l-.24.24v4.87l.23.22a.94.94,0,0,0,1.5-.2,19.33,19.33,0,0,0,0-4.87,1,1,0,0,0-1.52-.26m-14.38.09a1,1,0,0,0-.47,1,25.5,25.5,0,0,0,3.73,3.9.94.94,0,0,0,1.28-1.28,37,37,0,0,0-3.74-3.68.81.81,0,0,0-.8.05m29.33-.07a43.49,43.49,0,0,0-3.8,3.76.93.93,0,0,0,1.29,1.22,37.81,37.81,0,0,0,3.72-3.79c.22-.71-.56-1.49-1.21-1.19M29.21,19.73a2.63,2.63,0,0,1-1.48.25,3,3,0,0,0-3.23,3.38c0,.5,0,.61-.08.61-1.09,0-2.23,1.57-2.23,3.06,0,.73,0,.87-.14.87-1.59,0-2.82,2.78-2,4.47l.16.31-.33.16a3.21,3.21,0,0,0-1,4.84l.29.33-1.45,1.46-1.45,1.46-.42-.13c-1.34-.42-2.36,0-4,1.67S10,45.21,10.69,46.6s3.09,3.4,3.73,3,.6-1.06-.77-2.42c-1.79-1.77-1.79-1.85-.22-3.43l1.11-1.13H15c.59,0,.47-.11,6,5.47,5.73,5.75,5.4,5.13,3.62,6.9-1.58,1.55-1.57,1.55-3.48-.34-1.34-1.32-1.67-1.44-2.23-.82s-.41.89,1.15,2.43S22,58,23.22,57.92c1.11-.05,1.41-.23,2.82-1.63,1.64-1.64,2-2.59,1.47-4l-.2-.55L29,50c2.07-2.07,1.72-1.93,4.38-1.85l2,.06,1.8,1.8,1.81,1.81-.16.47c-.45,1.36-.09,2.29,1.52,3.91s2.94,2.11,4.43,1.31c.58-.32,10.63-10.39,10.9-10.93.73-1.45.37-2.6-1.33-4.32s-2.84-2.05-4.13-1.48l-.32.14-1.44-1.44L47.09,38l.3-.38a3.23,3.23,0,0,0-1.2-4.91l-.48-.18v-.84a3,3,0,0,0-1.82-2.87l-.58-.27.06-.43a3.26,3.26,0,0,0-1.93-3.28L41,24.72l0-.89a2.94,2.94,0,0,0-3-3.09c-.44,0-2.07-.32-3.62-.62-3.52-.69-4.44-.76-5.18-.39m3.53,2c1.08.19,2,.39,2.12.42s0,.27-1,1.17L32.8,24.44,32.22,24a5.57,5.57,0,0,1-2-2.5c0-.23.32-.2,2.55.21m-4.62.19a1.35,1.35,0,0,1,.4.61c.61,1.52,3.1,3.84,4.12,3.84.17,0,.35.58.29.95a1.3,1.3,0,0,1-1.48,1.05,33.83,33.83,0,0,1-5-4.93,1.26,1.26,0,0,1,1.69-1.52m10.47.93c.89.75.76,1.31-.62,2.67s-1.41,1.61-.94,2.18,1,.49,1.94-.42,1.8-1,2.31-.17.23,1.24-1.2,2.65c-.93.92-1,1.14-.83,1.65.35.84,1.1.78,2-.17s1.51-1,2.21-.38.51,1.2-.74,2.49-1.26,1.41-1,1.94c.35.68,1,.66,1.78-.06.94-.89,1.42-1,2.07-.64,1,.63.81,1.35-.8,2.95-1.22,1.22-1.39,1.49-1.21,2,.23.71,1,.81,1.73.21l.43-.37,1.4,1.4,1.4,1.4-4.09,4.09-4.09,4.09L39,49l-1.43-1.42.76-.78c.85-.87,1-1.31.57-1.77s-1-.45-1.87.4-1.08.95-3.95.91c-3.1,0-2.74-.19-5.14,2.2L26,50.37l-4.11-4.1-4.1-4.11,1.41-1.42,1.41-1.41.58.19a3.15,3.15,0,0,0,4.19-2.38l.11-.55.43-.06a3.21,3.21,0,0,0,2.64-2.66c.06-.41.06-.41.47-.47a3.19,3.19,0,0,0,2.66-2.64l.06-.43.41-.06A3.21,3.21,0,0,0,34.66,26l-.19-.57,1.14-1.16c1.78-1.8,2.27-2,3-1.44m-12.75,3a34.36,34.36,0,0,1,3.82,3.81,1.26,1.26,0,0,1-1.33,1.81,28.27,28.27,0,0,1-4.18-4,1.25,1.25,0,0,1,1.69-1.62m-2.37,3.91a19.2,19.2,0,0,1,3.19,3.38,1.29,1.29,0,0,1-1.77,1.36A25.61,25.61,0,0,1,22,31.71a1.25,1.25,0,0,1,1.51-1.9M22,34.55c1.49.78,2,2.43.91,3.08s-3-1.09-2.73-2.28a1.34,1.34,0,0,1,1.82-.8m18.5,7.39a1,1,0,0,0-.17,1.44.93.93,0,0,0,1.62-.65,1,1,0,0,0-1.45-.79m11.44.66a7.34,7.34,0,0,1,2.25,2.54c0,.6,0,.63-5.15,5.74S43.9,56,43.35,56c-1,0-2.87-2.18-2.66-3,.07-.3,9.87-10.17,10.28-10.35a.94.94,0,0,1,.92,0M16,50.83a.93.93,0,1,0,.61-.23.9.9,0,0,0-.61.23" transform="translate(-10.35 -12.14)"/>
  </g>
</svg>
